<svg enable-background="new 0 0 133 133" viewBox="0 0 133 133" xmlns="http://www.w3.org/2000/svg" xmlns:xlink="http://www.w3.org/1999/xlink"><clipPath id="a"><path d="m46 88.1c-2.8 9.5 9.9 13.7 9.9 13.7s4.3 8.1 12.8 7.3c6.7-.5 19.3-10.4 28.1-28.1s21.9-51.2 24.9-69.8c.4-2.4 0-9.8-2.3-11-2.2-1.1-6.8 1.6-8.8 3.2-10.9 8.9-20.2 25.4-36.2 43.2-13.6 15.1-24.1 26.6-28.4 41.5z"/></clipPath><clipPath id="b"><path d="m46 88.1c-2.8 9.5 9.9 13.7 9.9 13.7s4.3 8.1 12.8 7.3c6.7-.5 19.3-10.4 28.1-28.1s21.9-51.2 24.9-69.8c.4-2.4 0-9.8-2.3-11-2.2-1.1-6.8 1.6-8.8 3.2-10.9 8.9-20.2 25.4-36.2 43.2-13.6 15.1-24.1 26.6-28.4 41.5z"/></clipPath><clipPath id="c"><path d="m50.3 92.6s.5 6.5-.9 8.7c-.9 1.4-14.2 18.2-23.6 22.6-3.8 1.8-13 3.1-14 3.9-.9.7-.9 2.4-.3 3.4.7 1.1 11.8 1.7 16.3 0 10.9-4.2 28.1-23.6 29.2-24.6 1.6-1.4 9.2-1.4 9.2-1.4s-2-2.7-3.1-5.9c-.8-2.2-1-5.4-1.9-6s-3.9.4-5.7.3c-2.9-.1-5.2-1-5.2-1z"/></clipPath><path d="m65.1 64.1-35.4 11.1-9 15 26.6 3.3z" fill="#ef4136"/><path d="m91.2 82.6.4 37.1-11.4 13.3-11.5-24.3z" fill="#ef4136"/><path d="m46 88.1c-2.8 9.5 9.9 13.7 9.9 13.7s4.3 8.1 12.8 7.3c6.7-.5 19.3-10.4 28.1-28.1s21.9-51.2 24.9-69.8c.4-2.4 0-9.8-2.3-11-2.2-1.1-6.8 1.6-8.8 3.2-10.9 8.9-20.2 25.4-36.2 43.2-13.6 15.1-24.1 26.6-28.4 41.5z" fill="#2bb673"/><g clip-path="url(#a)"><path d="m54.4 107.5s.2-19.1 16.7-38.1c10.7-12.3 32.2-43 38.6-58 4.4-10.3 5.5-15.6 5.5-15.6s6.6.4 17.1 10.9c21.5 21.4-45.7 116.1-45.7 116.1z" fill="#26a568"/></g><g clip-path="url(#a)"><path d="m51.3 108.1s-4.1-15.6 3.4-29.7c5.7-10.8 21.8-28.6 29.7-37.9 14.3-16.8 14.1-16.5 29.4-47.3l-43.9 28-43 62.2z" fill="#26a568"/></g><g clip-path="url(#b)"><path d="m41.1 93.6s13.2 12.3 28.5 6.7c13.4-4.9 27.4-31.6 37.6-55.3 10-23.1 10.1-22.9 17.7-52.3l9.6 40.9-48.7 79.7-46.4-.2z" fill="#006838"/></g><path d="m50.3 92.6s.5 6.5-.9 8.7c-.9 1.4-14.2 18.2-23.6 22.6-3.8 1.8-13 3.1-14 3.9-.9.7-.9 2.4-.3 3.4.7 1.1 11.8 1.7 16.3 0 10.9-4.2 28.1-23.6 29.2-24.6 1.6-1.4 9.2-1.4 9.2-1.4s-2-2.7-3.1-5.9c-.8-2.2-1-5.4-1.9-6s-3.9.4-5.7.3c-2.9-.1-5.2-1-5.2-1z" fill="#009444"/><g clip-path="url(#c)"><path d="m62.6 91.5s-15.5 20.7-21.5 26.4c-3.1 2.9-9.8 8.2-13.7 9.8-4.6 1.9-19.6 2.3-19.6 2.3l7.4 8.9 31.2-10.9 28.5-15.9z" fill="#006838"/></g><path d="m60.5 97.5s-3.2 3.3-2.8 4.5c.5 1.4 6 2.5 6 2.5s-3.4-2-3.8-3c-.4-.9.6-4 .6-4z" fill="#009444"/><g fill="#9fd4b0"><path d="m92.1 49c-1.8-1.3-12.8 16.1-17.5 21.6-4 4.6-11.9 15.3-7.8 17.9s10.8-7.8 14.5-14.1c3.8-6.8 12.6-24.2 10.8-25.4z"/><path d="m97.5 40.2c-.9-.3-1.9.9-2.4 1.8-.2.5-.7 2.1-.7 2.9-.1 1.4.7 2.4 1.8 2.3 1-.1 1.6-2.4 1.8-3 .3-1 .5-3.7-.5-4z"/></g></svg>